<svg width="74" height="74" viewBox="0 0 74 74" fill="none" xmlns="http://www.w3.org/2000/svg">
<path d="M31.1735 55.9616H19.4877C18.2235 55.9616 17.1752 54.9132 17.1752 53.6491V37.8624C17.1752 34.6558 19.796 32.0346 23.0026 32.0346H31.1735C32.4376 32.0346 33.486 33.0829 33.486 34.3471V53.6179C33.486 54.9129 32.4376 55.9616 31.1735 55.9616ZM21.8002 51.3366H28.8609V36.6907H23.0026C22.3551 36.6907 21.8002 37.2146 21.8002 37.8929V51.3366Z" fill="#00DA71"/>
<path d="M42.8263 55.9616H31.1405C29.8763 55.9616 28.828 54.9132 28.828 53.6491V23.8638C28.828 20.6572 31.4488 18.0363 34.6555 18.0363H39.3421C42.5488 18.0363 45.1696 20.6572 45.1696 23.8638V53.6491C45.1388 54.9132 44.1213 55.9616 42.8263 55.9616ZM33.4838 51.3366H40.5446V23.8638C40.5446 23.2163 40.0205 22.6613 39.3421 22.6613H34.6555C34.008 22.6613 33.453 23.1855 33.453 23.8638V51.3366H33.4838Z" fill="#00DA71"/>
<path d="M54.5152 55.9616H42.8293C41.5652 55.9616 40.5168 54.9132 40.5168 53.6491V39.6196C40.5168 38.3554 41.5652 37.3071 42.8293 37.3071H51.0002C54.2068 37.3071 56.8277 39.9279 56.8277 43.1346V53.6491C56.8277 54.9132 55.8102 55.9616 54.5152 55.9616ZM45.1418 51.3366H52.2027V43.1346C52.2027 42.4871 51.6785 41.9321 51.0002 41.9321H45.1418V51.3366Z" fill="#00DA71"/>
<path d="M46.25 70.1458H27.75C11.0075 70.1458 3.85413 62.9925 3.85413 46.25V27.75C3.85413 11.0075 11.0075 3.85416 27.75 3.85416H46.25C62.9925 3.85416 70.1458 11.0075 70.1458 27.75V46.25C70.1458 62.9925 62.9925 70.1458 46.25 70.1458ZM27.75 8.47916C13.5358 8.47916 8.47913 13.5358 8.47913 27.75V46.25C8.47913 60.4642 13.5358 65.5208 27.75 65.5208H46.25C60.4641 65.5208 65.5208 60.4642 65.5208 46.25V27.75C65.5208 13.5358 60.4641 8.47916 46.25 8.47916H27.75Z" fill="#00DA71"/>
</svg>
